<svg width="85" height="84" viewBox="0 0 85 84" fill="none" xmlns="http://www.w3.org/2000/svg">
<path d="M32.6561 81.6269C42.2103 81.6269 51.7645 81.6269 61.3187 81.6269C69.6502 81.6269 71.4762 79.9598 75.3047 72.3029C81.9157 59.0809 88.6849 30.8039 77.6357 17.9131C68.9468 7.77601 47.4625 2.37308 34.2101 2.37308C29.2118 2.37308 10.9001 9.00189 8.45997 17.913C4.45997 32.5205 -4.5702 57.1803 10.9001 66.0205C18.0479 70.1049 17.7385 73.414 27.96 77.5205C38.1814 81.6269 36.5765 79.528 38.1814 79.9866C39.983 80.5013 47.7413 80.0729 46.6421 80.0729" stroke="#FFC3F9" stroke-width="3" stroke-linecap="round"/>
<path d="M57.5205 58.3169C51.0147 57.594 44.1887 52.755 39.6495 48.2159C37.754 46.3204 28.6852 41.3764 28.6852 38.4602C28.6852 36.1566 33.2423 37.6598 35.4192 36.9062C37.9154 36.0422 40.3739 34.7657 42.6712 33.4529C45.3995 31.8939 48.3968 28.3904 49.7505 25.6829" stroke="#FFC3F9" stroke-width="3" stroke-linecap="round"/>
</svg>
